Coordinates
version=1
nRows=17
nColumns=40
inDegrees=yes

Units are S.I. units (second, meters, Newtons, ...)
Angles are in degrees.

endheader
time	pelvis_tilt	pelvis_list	pelvis_rotation	pelvis_tx	pelvis_ty	pelvis_tz	hip_flexion_r	hip_adduction_r	hip_rotation_r	knee_angle_r	knee_angle_r_beta	ankle_angle_r	subtalar_angle_r	mtp_angle_r	hip_flexion_l	hip_adduction_l	hip_rotation_l	knee_angle_l	knee_angle_l_beta	ankle_angle_l	subtalar_angle_l	mtp_angle_l	lumbar_extension	lumbar_bending	lumbar_rotation	arm_flex_r	arm_add_r	arm_rot_r	elbow_flex_r	pro_sup_r	wrist_flex_r	wrist_dev_r	arm_flex_l	arm_add_l	arm_rot_l	elbow_flex_l	pro_sup_l	wrist_flex_l	wrist_dev_l
     22.17000000	     -6.26355201	     -4.55894432	     -4.48503027	      0.83563900	      0.93423276	      0.44899937	     29.69151006	     -6.21730123	     -9.57778025	     64.28786695	     64.28786695	     10.93202050	    -19.13037773	     13.30966270	     15.33034501	     -5.68017216	    -11.05656768	     18.59516521	     18.59516521	     11.78140397	     -7.53969307	     -3.05456275	     -9.35266290	      2.01163851	      0.16869631	      1.18229637	    -13.08822733	     -1.47769637	     38.58224470	     27.09877784	      0.00000000	      0.00000000	     18.78943356	    -13.77351084	    -13.02072352	     48.73604062	     27.52165094	      0.00000000	      0.00000000
     22.18228571	     -6.32004432	     -4.68747421	     -4.63658012	      0.83484771	      0.93428781	      0.44890890	     30.35908244	     -5.87929081	     -9.46505422	     62.72087768	     62.72087768	     10.54795666	    -19.03956177	     12.74856411	     14.74310266	     -5.73614100	    -11.05811412	     18.16403093	     18.16403093	     11.66442243	     -7.76826667	     -4.01206369	     -9.46846788	      2.23122029	     -0.10582865	      0.55040339	    -12.83038443	     -3.50010111	     35.15796847	     29.25954900	      0.00000000	      0.00000000	     18.63179389	    -14.25534582	    -12.21758481	     52.40443662	     29.36870877	      0.00000000	      0.00000000
     22.19457143	     -6.39104824	     -4.86626135	     -4.78406331	      0.83394638	      0.93433879	      0.44880473	     30.95578772	     -5.45118320	     -9.34233300	     60.99217327	     60.99217327	     10.23739076	    -18.90570717	     12.72543350	     14.25449033	     -5.85092371	    -10.99285015	     17.90118577	     17.90118577	     11.91259877	     -7.93213196	     -4.01848085	     -9.59175956	      2.55407631	      0.27161738	     -1.13031339	    -13.30317745	     -3.67139903	     33.70795103	     29.55977411	      0.00000000	      0.00000000	     19.71804263	    -13.98260185	    -12.24336481	     53.78076630	     29.60897535	      0.00000000	      0.00000000
     22.20685714	     -6.48732549	     -5.02465764	     -4.92671702	      0.83309621	      0.93422723	      0.44877577	     31.48930442	     -5.02513179	     -9.23145366	     59.11400968	     59.11400968	      9.93146831	    -18.73369209	     12.59556345	     13.81543231	     -5.95539502	    -10.92543582	     17.67155731	     17.67155731	     12.18802923	     -8.10663219	     -4.08024203	     -9.66011804	      2.86420628	      0.43014637	     -2.63705109	    -13.65630321	     -3.93245375	     32.18983147	     29.81755493	      0.00000000	      0.00000000	     20.64480943	    -13.95121557	    -12.22181736	     55.29260457	     29.78900869	      0.00000000	      0.00000000
     22.21914286	     -6.53078349	     -5.05191332	     -5.08447515	      0.83222065	      0.93409253	      0.44872454	     31.79714070	     -4.78190303	     -9.20381061	     56.84894576	     56.84894576	      8.79070427	    -18.63655909	      9.75923058	     13.33707742	     -5.88956420	    -10.79884008	     17.42844689	     17.42844689	     12.22907609	     -8.58160661	     -4.49468077	     -9.85819071	      2.92673312	     -0.04709284	     -1.98506029	    -13.14096049	     -7.68538712	     26.74445457	     32.28487565	      0.00000000	      0.00000000	     20.16090468	    -14.57028810	    -11.73986304	     59.67152390	     31.82970667	      0.00000000	      0.00000000
     22.23142857	     -6.63290766	     -5.17686742	     -5.29125906	      0.83130892	      0.93384400	      0.44889810	     32.15425717	     -4.28138597	     -9.03378412	     54.50554339	     54.50554339	      8.52770276	    -18.32688574	      9.64195663	     12.99131623	     -5.99846368	    -10.78964773	     17.35345812	     17.35345812	     12.48206577	     -8.81688212	     -4.51226033	     -9.96284263	      3.18584666	      0.33720365	     -3.43838127	    -13.57612880	     -8.16756660	     25.53581004	     32.65513148	      0.00000000	      0.00000000	     21.00481434	    -14.36206809	    -11.73343816	     61.32070552	     32.13806181	      0.00000000	      0.00000000
     22.24371429	     -6.76715206	     -5.34094954	     -5.46136715	      0.83038479	      0.93353595	      0.44910958	     32.38021988	     -3.75802667	     -9.03321378	     51.81441539	     51.81441539	      8.25436486	    -17.89283219	      9.46424300	     12.71793607	     -6.15368270	    -10.72414774	     17.33426964	     17.33426964	     12.74505808	     -9.05279611	     -4.54056826	    -10.03154796	      3.49430653	      0.42905881	     -4.56022870	    -13.97986759	     -8.57503914	     24.53114345	     32.91278007	      0.00000000	      0.00000000	     21.58694331	    -14.26525528	    -11.65037591	     62.88408454	     32.32962285	      0.00000000	      0.00000000
     22.25600000	     -6.96528619	     -5.32619887	     -5.67115844	      0.82942819	      0.93293808	      0.44935552	     32.61252160	     -3.41191653	     -9.02679175	     48.87514521	     48.87514521	      7.49019287	    -17.42350460	      7.57860162	     12.55210965	     -6.13021336	    -10.73914389	     17.37212477	     17.37212477	     13.06296123	     -9.28823306	     -4.48022473	    -10.08516729	      3.60108154	      0.42948459	     -5.24804623	    -14.15319641	    -10.00946490	     22.82018496	     33.70590514	      0.00000000	      0.00000000	     21.42911064	    -14.51211384	    -11.26481948	     66.41302531	     32.93904196	      0.00000000	      0.00000000
     22.26828571	     -7.17588615	     -5.47689253	     -5.88994861	      0.82847971	      0.93240547	      0.44993231	     32.70044462	     -2.83127902	     -9.14220346	     45.65576347	     45.65576347	      7.38197846	    -16.52419947	      7.51311953	     12.40904063	     -6.32115535	    -10.70672965	     17.45041961	     17.45041961	     13.33326536	     -9.55245206	     -4.51071019	    -10.07698669	      3.89008607	      0.34387025	     -6.11150480	    -14.53318769	    -10.30999075	     22.24961845	     33.86381396	      0.00000000	      0.00000000	     21.93427654	    -14.69925007	    -11.34282664	     67.40003154	     33.06811488	      0.00000000	      0.00000000
     22.28057143	     -7.40643092	     -5.55934127	     -6.12235797	      0.82753844	      0.93176659	      0.45053940	     32.71085414	     -2.31499240	     -9.34398712	     42.19603581	     42.19603581	      7.18667992	    -15.38651175	      7.29072967	     12.31722658	     -6.44779446	    -10.71469183	     17.58737644	     17.58737644	     13.63473178	     -9.83639083	     -4.51252187	    -10.08877321	      4.11902350	      0.49421331	     -7.01920765	    -14.88881626	    -10.64376197	     21.67414019	     34.03300775	      0.00000000	      0.00000000	     22.31033060	    -14.61457035	    -11.30773628	     68.91533135	     33.19511216	      0.00000000	      0.00000000
     22.29285714	     -7.57971772	     -5.47695066	     -6.38034792	      0.82678414	      0.93102871	      0.45124578	     32.35411662	     -1.94693184	     -9.68286923	     38.04592305	     38.04592305	      4.87173618	    -14.81375141	      1.16236046	     12.23466998	     -6.43107389	    -10.86547294	     17.90594333	     17.90594333	     14.26594865	     -9.84894214	     -3.83512835	    -10.25413441	      4.10941672	      0.44026838	     -6.68117570	    -14.26220916	    -20.90356227	     19.73024549	     41.55949489	      0.00000000	      0.00000000	     21.66090265	    -14.89906719	    -10.56087572	     72.77547987	     40.50148600	      0.00000000	      0.00000000
     22.30514286	     -7.88777275	     -5.47553605	     -6.66307510	      0.82604890	      0.93017515	      0.45217323	     32.23452914	     -1.40124859	     -9.97911903	     34.22908185	     34.22908185	      4.68213263	    -13.17471159	      1.56863939	     12.18597378	     -6.50138627	    -10.94603223	     18.00058996	     18.00058996	     14.52130912	    -10.10066915	     -3.87595547	    -10.12179946	      4.24965238	      0.53463994	     -7.44217760	    -14.57764690	    -20.90591036	     19.50098392	     41.61497257	      0.00000000	      0.00000000	     21.93126640	    -14.85574452	    -10.53511922	     73.71203365	     40.56844582	      0.00000000	      0.00000000
     22.31742857	     -8.01402759	     -5.40673801	     -6.94403269	      0.82561159	      0.92939908	      0.45313752	     31.80951749	     -1.02465199	    -10.64183381	     30.36831231	     30.36831231	      4.42160000	    -10.76662800	      1.53892817	     11.96326716	     -6.49658170	    -11.12258562	     18.19232727	     18.19232727	     14.92102137	    -10.25898037	     -3.78216463	    -10.26666211	      4.26593601	      0.75671167	     -8.33445015	    -14.86541438	    -20.89607158	     19.64920951	     41.73377348	      0.00000000	      0.00000000	     21.85579345	    -14.79233598	    -10.31822066	     75.95113215	     40.73530964	      0.00000000	      0.00000000
     22.32971429	     -8.30318929	     -5.32493003	     -7.21492559	      0.82530693	      0.92841505	      0.45429099	     31.46108726	     -0.49869845	    -11.11222287	     26.46144895	     26.46144895	      3.94737445	     -8.77064438	      2.05757453	     11.83394195	     -6.48355340	    -11.24531700	     18.22819108	     18.22819108	     15.22426480	    -10.41132352	     -3.77181917	    -10.09480981	      4.33331147	      0.73981082	     -8.97835249	    -15.09978989	    -20.91552507	     19.72783982	     41.78527632	      0.00000000	      0.00000000	     21.74988776	    -14.80783299	    -10.20297062	     76.98990226	     40.80952702	      0.00000000	      0.00000000
     22.34200000	     -8.43394610	     -5.20948802	     -7.48532821	      0.82534943	      0.92749600	      0.45563780	     30.88396392	     -0.05311554	    -11.84485645	     22.74145913	     22.74145913	      3.54027525	     -6.20727376	      2.57636873	     11.49599706	     -6.43141285	    -11.43526720	     18.25428893	     18.25428893	     15.60657017	    -10.47027978	     -3.73056749	    -10.13413726	      4.30151047	      0.80506068	     -9.62144046	    -15.28395893	    -20.92635919	     20.05825575	     41.84445657	      0.00000000	      0.00000000	     21.49406316	    -14.84223616	    -10.00842908	     78.47122855	     40.91079997	      0.00000000	      0.00000000
     22.35428571	     -8.58113760	     -5.02614526	     -7.73349867	      0.82565438	      0.92645904	      0.45704676	     30.35635194	      0.34093821	    -12.53986142	     19.38233352	     19.38233352	      3.04624857	     -3.73185523	      3.34412278	     11.11874482	     -6.29674345	    -11.66519858	     18.18513075	     18.18513075	     15.98630560	    -10.48617625	     -3.70218944	    -10.05956219	      4.22845102	      0.78380894	    -10.18644963	    -15.38656372	    -20.92366895	     20.45731604	     41.89137556	      0.00000000	      0.00000000	     21.12981804	    -14.88851830	     -9.79934407	     79.68570048	     41.00062402	      0.00000000	      0.00000000
     22.36657143	     -8.62604378	     -4.77046289	     -7.99099797	      0.82628323	      0.92541914	      0.45859278	     29.84255223	      0.57491376	    -13.45795139	     16.66957000	     16.66957000	      2.81854860	     -0.82261415	      4.48892802	     10.56987233	     -6.07509464	    -11.97785824	     18.04588873	     18.04588873	     16.44122483	    -10.34205910	     -3.57999405	    -10.08093354	      4.04000909	      0.67203141	    -10.73316128	    -15.39412973	    -20.81973340	     21.42722715	     41.97040618	      0.00000000	      0.00000000	     20.49357890	    -15.12262730	     -9.51533718	     81.27943359	     41.18367938	      0.00000000	      0.00000000
